<svg xmlns="http://www.w3.org/2000/svg" version="1.1" xmlns:xlink="http://www.w3.org/1999/xlink" xmlns:svgjs="http://svgjs.dev/svgjs" width="1500" height="2078" viewBox="0 0 1500 2078"><g transform="matrix(1,0,0,1,-2.8570522616813605,-3.3516129032259414)"><svg viewBox="0 0 179 248" data-background-color="#ffffff" preserveAspectRatio="xMidYMid meet" height="2078" width="1500" xmlns="http://www.w3.org/2000/svg" xmlns:xlink="http://www.w3.org/1999/xlink"><g id="tight-bounds" transform="matrix(1,0,0,1,0.34094156989397106,0.4000000000000057)"><svg viewBox="0 0 178.31811686021203 247.2" height="247.2" width="178.31811686021203"><g><svg viewBox="0 0 397.4975999999999 551.0455608783122" height="247.2" width="178.31811686021203"><g><rect width="397.4975999999999" height="15.765616299371066" x="0" y="282.7855919128523" fill="#fbb04b" opacity="1" stroke-width="0" stroke="transparent" fill-opacity="1" class="rect-yte-0" data-fill-palette-color="primary" rx="1%" id="yte-0" data-palette-color="#fbb04b"></rect></g><g><rect width="397.4975999999999" height="15.765616299371066" x="0" y="319.1868316407195" fill="#fbb04b" opacity="1" stroke-width="0" stroke="transparent" fill-opacity="1" class="rect-yte-1" data-fill-palette-color="primary" rx="1%" id="yte-1" data-palette-color="#fbb04b"></rect></g><g transform="matrix(1,0,0,1,0.9887999999999693,376.2236947970829)"><svg viewBox="0 0 395.52 174.82186608122942" height="174.82186608122942" width="395.52"><g id="textblocktransform"><svg viewBox="0 0 395.52 174.82186608122942" height="174.82186608122942" width="395.52" id="textblock"><g><svg viewBox="0 0 395.52 174.82186608122942" height="174.82186608122942" width="395.52"><g transform="matrix(1,0,0,1,0,0)"><svg width="395.52" viewBox="-0.25432123456000005 -36.9 85.40432123456 37.75" height="174.82186608122942" data-palette-color="#fbb04b"><path d="M21.75-12L10.15-12 6.9-2.5 10.75-1.5Q10.9-0.55 10.5 0.25L10.5 0.25Q9.15 0.15 7.48 0.08 5.8 0 4.4 0L4.4 0Q3 0 2.1 0.08 1.2 0.15-0.2 0.25L-0.2 0.25Q-0.35-0.7-0.1-1.5L-0.1-1.5Q1-1.65 1.95-1.9 2.9-2.15 3.75-2.5L3.75-2.5 15.6-35.95Q16-36.2 16.57-36.27 17.15-36.35 17.55-36.35L17.55-36.35 31.1-2.5 34.95-1.5Q35.1-0.55 34.7 0.25L34.7 0.25Q33.35 0.15 31.68 0.08 30 0 28.6 0L28.6 0Q27.65 0 26.3 0.05 24.95 0.1 23.63 0.15 22.3 0.2 21.35 0.25L21.35 0.25Q21.2-0.7 21.45-1.5L21.45-1.5Q22.6-1.65 23.58-1.9 24.55-2.15 25.45-2.5L25.45-2.5 21.75-12ZM15.7-29L15.6-29Q15.1-27.2 14.58-25.35 14.05-23.5 13.4-21.6L13.4-21.6 11.05-14.75 20.65-14.75 17.9-21.85Q17.05-23.9 16.53-25.6 16-27.3 15.7-29L15.7-29ZM47.05 0.25L47.05 0.25Q46.9-0.7 47.15-1.5L47.15-1.5Q48.2-1.65 49.2-1.9 50.2-2.15 51.15-2.5L51.15-2.5 51.15-10.2 36.05-10.2Q35.9-10.6 35.77-11.03 35.65-11.45 35.7-11.95L35.7-11.95 52.4-36Q53.25-36.4 54.05-36.63 54.85-36.85 55.9-36.9L55.9-36.9 55.9-13.6 61.15-13.6Q61.3-12.9 61.2-11.95 61.1-11 60.65-10.2L60.65-10.2 55.9-10.2 55.9-2.5 60-1.5Q60.15-0.55 59.75 0.25L59.75 0.25Q58.4 0.15 56.72 0.08 55.05 0 53.65 0L53.65 0Q52.25 0 50.35 0.08 48.45 0.15 47.05 0.25ZM48.3-25.3L40-13.6 51.15-13.6 51.15-24.7 51.4-29.9 51.3-29.9 48.3-25.3ZM85.15-9L85.15-9Q85.15-5.9 83.47-3.68 81.8-1.45 79.15-0.3 76.5 0.85 73.45 0.85L73.45 0.85Q71.15 0.85 68.8 0.35 66.45-0.15 64.5-1.05L64.5-1.05Q64.6-3.1 64.85-5.15 65.1-7.2 65.75-9.25L65.75-9.25Q65.95-9.3 66.3-9.3L66.3-9.3Q66.65-9.3 66.95-9.2 67.25-9.1 67.55-9L67.55-9 68.4-2.55Q69.5-2.2 70.65-1.98 71.8-1.75 72.9-1.75L72.9-1.75Q74.75-1.75 76.32-2.55 77.9-3.35 78.87-4.93 79.85-6.5 79.85-8.9L79.85-8.9Q79.85-13.15 77.4-15.13 74.95-17.1 70.65-17.15L70.65-17.15 70.65-19.15Q74.5-19.3 76.8-21.45 79.1-23.6 79.1-26.75L79.1-26.75Q79.1-30.25 77.37-31.7 75.65-33.15 73.3-33.15L73.3-33.15Q72.3-33.15 71.27-32.9 70.25-32.65 69.3-32.25L69.3-32.25 68.35-26Q67.75-25.7 67.1-25.7L67.1-25.7Q66.75-25.7 66.55-25.75L66.55-25.75Q66.05-27.65 65.72-29.63 65.4-31.6 65.4-33.7L65.4-33.7Q67.35-34.55 69.72-35.1 72.1-35.65 74.45-35.65L74.45-35.65Q76.9-35.65 79-34.85 81.1-34.05 82.4-32.18 83.7-30.3 83.7-27.15L83.7-27.15Q83.7-24.95 82.6-23.18 81.5-21.4 79.77-20.23 78.05-19.05 76.1-18.6L76.1-18.6 76.1-18.4Q80.55-17.75 82.85-15.53 85.15-13.3 85.15-9Z" opacity="1" transform="matrix(1,0,0,1,0,0)" fill="#fbb04b" class="wordmark-text-0" data-fill-palette-color="primary" id="text-0"></path></svg></g></svg></g></svg></g></svg></g><g transform="matrix(1,0,0,1,76.53311999999995,0)"><svg viewBox="0 0 244.43136 241.51434505585993" height="241.51434505585993" width="244.43136"><g><svg xmlns="http://www.w3.org/2000/svg" xmlns:xlink="http://www.w3.org/1999/xlink" version="1.1" x="0" y="0" viewBox="7.6798609504538655 8.78588653284901 80.37327866997046 79.414113467151" enable-background="new 0 0 100 100" xml:space="preserve" height="241.51434505585993" width="244.43136" class="icon-icon-0" data-fill-palette-color="accent" id="icon-0"><g fill="#8a8d56" data-fill-palette-color="accent"><path d="M30.1 27C30.3 27.6 30.9 27.9 31.5 27.9 31.7 27.9 31.9 27.9 32.1 27.8 32.9 27.5 33.2 26.6 32.9 25.8L25.7 9.7C25.4 8.9 24.5 8.6 23.7 8.9S22.6 10.1 22.9 10.9z" fill="#8a8d56" data-fill-palette-color="accent"></path><path d="M18.5 32.5C18.9 32.5 19.4 32.3 19.7 31.9 20.2 31.3 20.1 30.3 19.5 29.8L10.1 22.3C9.5 21.9 8.5 22 8 22.6S7.6 24.2 8.2 24.7L17.6 32.2C17.9 32.4 18.2 32.5 18.5 32.5" fill="#8a8d56" data-fill-palette-color="accent"></path><path d="M66.2 27.6C66.4 27.7 66.6 27.7 66.8 27.7 67.4 27.7 67.9 27.4 68.2 26.8L73.8 14.6C74.1 13.8 73.8 13 73.1 12.6 72.3 12.3 71.5 12.6 71.1 13.3L65.5 25.5C65.1 26.3 65.4 27.2 66.2 27.6" fill="#8a8d56" data-fill-palette-color="accent"></path><path d="M87.5 21.2C86.9 20.7 85.9 20.7 85.4 21.4L77.9 30C77.4 30.6 77.4 31.6 78.1 32.1 78.4 32.3 78.7 32.5 79.1 32.5S79.9 32.3 80.2 32L87.7 23.3C88.2 22.7 88.2 21.7 87.5 21.2" fill="#8a8d56" data-fill-palette-color="accent"></path><path d="M48.9 25.8C49 25.8 49 25.8 48.9 25.8 49.8 25.8 50.4 25.2 50.4 24.4L50.8 14C50.8 13.2 50.2 12.5 49.4 12.5S47.9 13.1 47.9 13.9L47.6 24.2C47.5 25.1 48.1 25.8 48.9 25.8" fill="#8a8d56" data-fill-palette-color="accent"></path><path d="M86.7 60.4C86.6 60 86.4 59.7 86.1 59.5 85.5 58.5 84.3 57.1 82.3 55.8 82.6 55.4 82.9 55.1 83 54.7V54.6C83.1 54.3 85 46.2 79.1 40.2 74.8 35.9 61.7 32.6 49.1 32.6 42.3 32.6 32.6 33.6 25 38.2 24.1 38.7 14.7 44.3 16.1 56.3 16.2 56.8 16.3 57.2 16.6 57.6 13.7 59.7 10.8 62.3 11.1 64.3 11.2 64.7 11.5 65.8 12.9 66.3 13.5 66.5 14.1 66.6 14.8 66.6 16.3 66.6 17.5 66.1 18.4 65.7V65.9C18.5 66.5 18.5 67.2 18.7 68 18.6 68.1 18.6 68.3 18.5 68.4 17.2 69 15.6 70.1 15.5 71.7 15.5 71.8 15.5 72 15.4 72.1 14.5 78.4 16.6 82.6 21.7 84.4 26.4 86.1 34.8 88.2 46.8 88.2 52.8 88.2 59.7 87.7 67.5 86.3 82.7 83.6 83.9 80.9 83.4 73.2 83.4 72.7 83.3 72.2 83.3 71.6 83.3 70.6 82.8 69.8 82.1 69.3 81.6 68.9 81 68.7 80.4 68.6 81.5 68.5 82.7 68.3 83.8 68 84.3 67.9 84.7 67.5 84.9 67L86.7 61.5C86.8 61.2 86.8 60.9 86.7 60.5 86.8 60.5 86.7 60.4 86.7 60.4M22.8 81.6C18.1 79.9 17.9 76.1 18.4 72.6 18.4 72.4 18.5 72.2 18.5 72.1S18.7 71.9 18.8 71.7C19.2 72 20.2 72.4 21.5 72.9 21.7 73 21.9 73 22.1 73.1 25.2 74.1 30 75.3 35.9 76.1 36.8 77.5 37.9 78.6 39.3 78.6 39.8 78.6 40.2 78.5 40.7 78.3 41.4 78 41.9 77.4 42.2 76.8 53.1 77.6 66.4 76.7 79.4 71.4 79.9 71.5 80.2 71.6 80.3 71.7 80.3 72.3 80.4 72.8 80.4 73.3 80.8 79.2 80.9 80.8 67 83.3 44.3 87.4 29.6 84 22.8 81.6M26.6 40.7C33.6 36.4 42.7 35.5 49.1 35.5 61.8 35.5 73.7 39 77 42.2 81.5 46.7 80.3 52.9 80.2 53.6 80.1 53.8 79.9 54 79.6 54.2 79.2 54.5 78.5 54.8 77.7 55.1 77.1 55.3 76.4 55.6 75.6 55.8 74.4 56.1 73.1 56.5 71.6 56.8 70.8 57 69.9 57.1 69 57.3L67.2 57.6C66.4 57.7 65.6 57.8 64.8 58 64.1 58.1 63.4 58.2 62.6 58.3 61.9 58.4 61.3 58.5 60.6 58.5 59.9 58.6 59.2 58.7 58.4 58.7 57.4 58.8 56.5 58.9 55.4 59 51.1 59.3 46.4 59.5 41.5 59.5 31.5 59.5 25.7 58.6 22.5 57.7 21.6 57.4 20.8 57.1 20.3 56.9 19.5 56.5 19.1 56.1 19.1 55.8 17.9 45.4 26.1 40.9 26.6 40.7 26.5 40.7 26.6 40.7 26.6 40.7M33.8 69.2H33L31.5 68.4C32.6 67.7 33.3 67.4 33.6 67.2V67.7C33.7 68 33.7 68.6 33.8 69.2M69.9 68C69.4 68.7 68.9 69.1 67.9 69 66.4 68.8 66.4 69 65.7 68.3 65.3 67.9 64.6 67.2 63.8 66.9 63.8 66.8 63.9 66.6 63.9 66.5 65.7 67 67.7 67.6 69.9 68M52.2 69.8L52.5 68.9C52.6 68.2 54.1 68.1 54.4 68.1 55.8 68.1 57.4 68.6 58.5 69.4 58.6 69.5 58.7 69.5 58.8 69.6 58.7 69.7 58.6 69.8 58.5 69.8 58 70.2 57.5 70.5 57 70.9 55.5 71.8 53.4 72.4 53.4 72.4S50.4 73.4 48.9 71.9C50.4 71.9 51.6 71.1 52.2 69.8M80.7 59.7C77.9 59.9 75.4 59.8 73.3 59.5 74.3 59.3 75.2 59 76.1 58.8 77.4 58.4 78.6 58 79.5 57.5 80.7 58.1 81.7 58.8 82.3 59.5 81.8 59.6 81.3 59.7 80.7 59.7M19 59.6C20.4 60.4 22.4 61 24.9 61.5L23.1 64.5C22.7 65.2 22.9 66.1 23.6 66.6 23.8 66.7 24.1 66.8 24.4 66.8 24.9 66.8 25.4 66.5 25.7 66.1L28.1 62.1C31.5 62.5 35.7 62.7 40.5 62.8L40.9 65.1C41 65.8 41.7 66.3 42.4 66.3H42.7C43.5 66.1 44 65.4 43.9 64.5L43.6 62.7C47.2 62.6 51.6 62.5 56.1 62.1 56.9 62 57.6 62 58.4 61.9 58.8 61.9 59.1 61.8 59.5 61.8 60 62.4 60.4 63.1 60.7 63.7S61.1 65 61.1 65.5V66.1C61 66.9 60.6 67.3 60.6 67.3S60.5 67.3 60.5 67.2C58.9 66 56.7 65.3 54.6 65.3 52 65.3 50.2 66.5 49.8 68.5 49.8 68.7 49.7 69.1 48.9 69.1S46.7 68.6 45.6 67.5C45.1 67 44.5 66.7 43.9 66.7 42.7 66.7 42.1 67.5 41.7 68.7 41.6 69 41.5 69.3 41.4 69.7L41.1 71.2C40.9 72.7 40.4 75.3 39.6 75.8 38.8 75.5 37.5 72.3 37.1 69.6 37.1 69.5 37.1 69.3 37 69.2 36.9 68.7 36.9 68.3 36.9 67.8 36.9 64.6 35 64.2 34.2 64.2 33.2 64.2 31.7 64.6 28.2 67.3 27.6 67.7 27 68.2 26.3 68.8 26.1 69 25.8 69.2 25.6 69.3 24.4 70.2 23.7 70.3 23.4 70.3 23 70.3 22.7 69.9 22.4 69.3L22.1 68.4 21.8 66.9C21.7 66.4 21.7 66 21.7 65.7 21.7 65.2 21.6 64.8 21.6 64.5 21.4 63 20.3 62.5 19.5 62.5 18.9 62.5 18.3 62.7 17.6 63 16.7 63.3 15.7 63.8 14.7 63.6 15.1 62.6 17 61 19 59.6M82.4 65.3C81.5 65.5 80.6 65.6 79.8 65.7 77.4 65.9 75 65.8 72.8 65.5 69.3 65 66.2 64.1 63.7 63.2 63.5 62.6 63.3 62 62.9 61.4 64.2 61.2 65.5 61.1 66.8 60.9 69.4 62 73 63 77.8 63 79.5 63 81.4 62.9 83.4 62.6z" fill="#8a8d56" data-fill-palette-color="accent"></path></g></svg></g></svg></g><g></g></svg></g><defs></defs></svg><rect width="178.31811686021203" height="247.2" fill="none" stroke="none" visibility="hidden"></rect></g></svg></g></svg>